<svg width="40" height="41" viewBox="0 0 40 41" fill="none" xmlns="http://www.w3.org/2000/svg">
<path d="M6.66667 13.8333C10.3486 13.8333 13.3333 10.8486 13.3333 7.16667C13.3333 3.48477 10.3486 0.5 6.66667 0.5C2.98477 0.5 0 3.48477 0 7.16667C0 10.8486 2.98477 13.8333 6.66667 13.8333Z" fill="#489CA8"/>
<path opacity="0.6" d="M33.3334 13.8333C37.0153 13.8333 40.0001 10.8486 40.0001 7.16667C40.0001 3.48477 37.0153 0.5 33.3334 0.5C29.6515 0.5 26.6667 3.48477 26.6667 7.16667C26.6667 10.8486 29.6515 13.8333 33.3334 13.8333Z" fill="#306870"/>
<path d="M6.66667 40.5C10.3486 40.5 13.3333 37.5153 13.3333 33.8334C13.3333 30.1515 10.3486 27.1667 6.66667 27.1667C2.98477 27.1667 0 30.1515 0 33.8334C0 37.5153 2.98477 40.5 6.66667 40.5Z" fill="#50ADBB"/>
<path opacity="0.8" d="M33.3334 40.5C37.0153 40.5 40.0001 37.5153 40.0001 33.8334C40.0001 30.1515 37.0153 27.1667 33.3334 27.1667C29.6515 27.1667 26.6667 30.1515 26.6667 33.8334C26.6667 37.5153 29.6515 40.5 33.3334 40.5Z" fill="#489CA8"/>
</svg>
