<svg width="15" height="21" viewBox="0 0 15 21" fill="none" xmlns="http://www.w3.org/2000/svg">
<path d="M9.76204 1.69004H4.51673C4.0919 1.69004 3.74634 1.31211 3.74634 0.845172C3.74634 0.37793 4.09175 0 4.51673 0H9.76204C10.1888 0 10.5338 0.37793 10.5338 0.845172C10.5338 1.31211 10.1887 1.69004 9.76204 1.69004Z" fill="white"/>
<path d="M8.37829 8.49573C8.94114 8.49573 9.40014 9.04569 9.40014 9.72677C9.40014 10.4049 8.94084 10.9562 8.37829 10.9562C7.8141 10.9562 7.35645 10.4049 7.35645 9.72677C7.35645 9.04539 7.8141 8.49573 8.37829 8.49573Z" fill="white"/>
<path d="M5.24148 11.6893C5.7172 11.6893 6.10284 11.2245 6.10284 10.6511C6.10284 10.0777 5.7172 9.61292 5.24148 9.61292C4.76577 9.61292 4.38013 10.0777 4.38013 10.6511C4.38013 11.2245 4.76577 11.6893 5.24148 11.6893Z" fill="white"/>
<path d="M10.0586 5.77565V3.92497C10.0586 3.92497 12.4054 3.40752 13.5783 6.13725C13.5783 6.1371 11.7504 7.46899 10.0586 5.77565Z" fill="white"/>
<path d="M4.31022 5.77565V3.92497C4.31022 3.92497 1.96307 3.40752 0.790771 6.13725C0.790771 6.1371 2.61688 7.46899 4.31022 5.77565Z" fill="white"/>
<path fill-rule="evenodd" clip-rule="evenodd" d="M9.66967 6.03354V2.14246H4.7389V6.03369L0.143804 17.4861C-0.70931 20.3038 2.84925 20.6751 2.84925 20.6751H11.5592C15.3771 20.0067 14.0422 17.264 14.0422 17.264L9.66967 6.03354ZM2.8765 13.3665C4.44472 12.886 7.65322 12.2505 11.4695 13.4343L12.9048 16.9945C12.9048 16.9945 14.0193 19.2052 10.8306 19.7439H3.55594C3.55594 19.7439 0.583152 19.4452 1.2951 17.1729L2.8765 13.3665Z" fill="white"/>
<path d="M8.37834 8.49573C8.94119 8.49573 9.40019 9.04569 9.40019 9.72677C9.40019 10.4049 8.94089 10.9562 8.37834 10.9562C7.81415 10.9562 7.35649 10.4049 7.35649 9.72677C7.35649 9.04539 7.81415 8.49573 8.37834 8.49573Z" fill="white"/>
<path d="M5.24148 11.6893C5.7172 11.6893 6.10284 11.2245 6.10284 10.6511C6.10284 10.0777 5.7172 9.6129 5.24148 9.6129C4.76577 9.6129 4.38013 10.0777 4.38013 10.6511C4.38013 11.2245 4.76577 11.6893 5.24148 11.6893Z" fill="white"/>
<path d="M5.96947 14.8487C5.96947 15.2591 5.41786 15.593 4.73843 15.593C4.05899 15.593 3.50903 15.2589 3.50903 14.8487C3.50903 14.4366 4.05899 14.1039 4.73843 14.1039C5.41816 14.1042 5.96947 14.4366 5.96947 14.8487Z" fill="white"/>
<path d="M10.3476 14.8487C10.3476 15.2591 9.79604 15.593 9.11825 15.593C8.43687 15.593 7.88721 15.2589 7.88721 14.8487C7.88721 14.4366 8.43687 14.1039 9.11825 14.1039C9.79634 14.1042 10.3476 14.4366 10.3476 14.8487Z" fill="white"/>
</svg>
