<svg width="24" height="21" viewBox="0 0 24 21" fill="none" xmlns="http://www.w3.org/2000/svg">
<g clip-path="url(#clip0_1175_211624)">
<path d="M11.8932 12.45C13.0278 12.45 13.9475 11.5196 13.9475 10.3719C13.9475 9.22421 13.0278 8.29382 11.8932 8.29382C10.7586 8.29382 9.83887 9.22421 9.83887 10.3719C9.83887 11.5196 10.7586 12.45 11.8932 12.45Z" fill="white"/>
<path d="M11.8934 14.5595C17.8815 14.5595 22.7357 12.6846 22.7357 10.3719C22.7357 8.05908 17.8815 6.1842 11.8934 6.1842C5.90532 6.1842 1.05103 8.05908 1.05103 10.3719C1.05103 12.6846 5.90532 14.5595 11.8934 14.5595Z" stroke="white" stroke-width="1.09549"/>
<path d="M8.30795 12.4657C11.302 17.7115 15.3343 21.0266 17.3143 19.8702C19.2943 18.7138 18.4723 13.5238 15.4783 8.27807C12.4843 3.03231 8.45199 -0.282776 6.47195 0.873615C4.49191 2.03 5.31391 7.21997 8.30795 12.4657Z" stroke="white" stroke-width="1.09549"/>
<path d="M8.30812 8.27804C5.31408 13.5238 4.49208 18.7138 6.47212 19.8702C8.45216 21.0265 12.4844 17.7115 15.4785 12.4657C18.4725 7.21994 19.2945 2.02997 17.3145 0.873578C15.3344 -0.282812 11.3022 3.03228 8.30812 8.27804Z" stroke="white" stroke-width="1.09549"/>
</g>
<defs>
<clipPath id="clip0_1175_211624">
<rect width="23.0487" height="20.7438" fill="white" transform="translate(0.368896)"/>
</clipPath>
</defs>
</svg>
