<svg width="23" height="21" viewBox="0 0 23 21" fill="none" xmlns="http://www.w3.org/2000/svg">
<g clip-path="url(#clip0_1175_211674)">
<path fill-rule="evenodd" clip-rule="evenodd" d="M15.301 14.4873C16.1074 14.4038 16.7191 13.7087 16.6913 12.8745C16.6636 12.0403 15.9684 11.3729 15.1342 11.3729H15.0786C14.2166 11.4007 13.5492 12.1237 13.5771 12.9857C13.6049 13.4028 13.7717 13.7643 14.0219 14.0145C13.0765 15.8776 11.6307 17.2401 9.46184 18.3802C7.98811 19.1588 6.45886 19.4369 4.92954 19.2423C3.67823 19.0754 2.70505 18.5193 2.09319 17.6016C1.20346 16.2391 1.12008 14.7653 1.87084 13.2916C2.39918 12.2349 3.23326 11.4563 3.76161 11.067C3.65043 10.7055 3.48354 10.0938 3.40016 9.64893C-0.631723 12.5687 -0.214553 16.5172 1.00884 18.3802C1.92643 19.7706 3.7894 20.6326 5.847 20.6326C6.40307 20.6326 6.95915 20.577 7.51529 20.438C11.0745 19.7428 13.7717 17.6294 15.3009 14.4873H15.301ZM20.1949 11.0393C18.0816 8.56444 14.9674 7.20195 11.4082 7.20195H10.9634C10.7131 6.70147 10.1847 6.36768 9.60087 6.36768H9.54522C8.68335 6.39547 8.01603 7.11844 8.04376 7.98051C8.07156 8.81465 8.76666 9.48203 9.60087 9.48203H9.65646C10.2682 9.45417 10.7965 9.06493 11.019 8.53658H11.5194C13.6327 8.53658 15.6347 9.14831 17.4421 10.344C18.8324 11.2617 19.8334 12.4574 20.3895 13.9033C20.8622 15.0712 20.8344 16.2112 20.3338 17.1845C19.5553 18.6583 18.2484 19.4647 16.5245 19.4647C15.4123 19.4647 14.3557 19.131 13.7995 18.8807C13.4937 19.1588 12.9375 19.6036 12.5483 19.8818C13.744 20.4379 14.9674 20.7438 16.1352 20.7438C18.8046 20.7438 20.7789 19.27 21.5296 17.7963C22.336 16.1834 22.2803 13.4028 20.1949 11.0393H20.1949ZM6.06955 14.9599C6.09734 15.7941 6.79251 16.4614 7.62666 16.4614H7.68231C8.54431 16.4337 9.21163 15.7107 9.18377 14.8487C9.15604 14.0145 8.4608 13.3471 7.62666 13.3471H7.57107C7.51542 13.3471 7.43197 13.3471 7.37645 13.3749C6.23637 11.484 5.76368 9.42644 5.93058 7.20189C6.04169 5.53347 6.59789 4.08753 7.57107 2.89181C8.37742 1.86298 9.93453 1.36242 10.9912 1.3347C13.9385 1.27904 15.1897 4.94947 15.2732 6.42333C15.6347 6.50671 16.2464 6.7014 16.6635 6.84044C16.3298 2.3358 13.5492 0 10.88 0C8.37742 0 6.06955 1.80745 5.15189 4.47691C3.87285 8.03616 4.70706 11.4563 6.26417 14.1536C6.1252 14.3483 6.04175 14.6541 6.06955 14.96V14.96V14.9599Z" fill="white"/>
</g>
<defs>
<clipPath id="clip0_1175_211674">
<rect width="21.8505" height="20.7438" fill="white" transform="translate(0.161133)"/>
</clipPath>
</defs>
</svg>
