<svg width="22" height="21" viewBox="0 0 22 21" fill="none" xmlns="http://www.w3.org/2000/svg">
<path fill-rule="evenodd" clip-rule="evenodd" d="M21.3688 10.3719C21.3688 4.64368 16.7491 0 11.0504 0C5.35144 0 0.731689 4.64368 0.731689 10.3719C0.731689 16.1 5.35144 20.7438 11.0503 20.7438C16.7491 20.7438 21.3688 16.1 21.3688 10.3719ZM9.12904 5.47852C9.03657 5.60416 8.98319 5.75428 8.97558 5.91011C8.96798 6.06593 9.00648 6.22054 9.08628 6.35459C9.13923 6.44321 9.20922 6.52046 9.29219 6.58188C10.4941 7.4773 11.1841 8.84639 11.1841 10.3387C11.1841 11.8309 10.4941 13.2 9.29219 14.0955C9.20931 14.1569 9.13942 14.2342 9.08654 14.3227C8.97923 14.5023 8.94747 14.7171 8.99822 14.92C9.02329 15.0205 9.0677 15.1151 9.12904 15.1982C9.19026 15.2813 9.26732 15.3515 9.35577 15.4048C9.44422 15.458 9.54233 15.4932 9.64445 15.5084C9.74657 15.5236 9.85068 15.5184 9.9508 15.4932C10.0509 15.4681 10.1451 15.4233 10.2278 15.3616C10.598 15.0856 10.9371 14.7703 11.2392 14.4211H13.4654C13.8988 14.4211 14.2511 14.0684 14.2511 13.6329C14.2511 13.1974 13.8996 12.8446 13.4654 12.8446H12.2367C12.5801 12.0539 12.7565 11.2008 12.7547 10.3388C12.7566 9.47668 12.5802 8.62349 12.2368 7.83274H13.4661C13.8996 7.83274 14.2517 7.4801 14.2517 7.04448C14.2517 6.60899 13.9002 6.25634 13.4661 6.25634H11.2405C10.9382 5.90682 10.5989 5.59118 10.2285 5.31498C10.1458 5.25335 10.0518 5.20866 9.9518 5.18348C9.85182 5.1583 9.74784 5.15312 9.64585 5.16825C9.43953 5.19924 9.25394 5.31083 9.12981 5.47852H9.12904ZM7.96912 9.64433C7.91228 9.79057 7.88494 9.94663 7.88869 10.1035C7.89575 10.4099 8.02144 10.7017 8.2393 10.9173C8.45577 11.1316 8.74796 11.2518 9.05251 11.252C9.35697 11.2517 9.64905 11.1315 9.86546 10.9173C10.0833 10.7017 10.209 10.4099 10.2161 10.1035C10.2199 9.94664 10.1927 9.79059 10.1359 9.64433C10.0793 9.49848 9.99417 9.36536 9.88557 9.25274C9.77738 9.14059 9.64776 9.05131 9.50442 8.9902C9.36151 8.92931 9.20778 8.89792 9.05244 8.89792C8.89711 8.89792 8.74337 8.92931 8.60047 8.9902C8.45717 9.05132 8.3276 9.1406 8.21945 9.25274C8.11084 9.36536 8.02575 9.49848 7.96912 9.64433Z" fill="white"/>
</svg>
