<svg width="22" height="21" viewBox="0 0 22 21" fill="none" xmlns="http://www.w3.org/2000/svg">
<path fill-rule="evenodd" clip-rule="evenodd" d="M1.38985 0H20.1889C20.7259 0 21.1613 0.435343 21.1613 0.972365V19.7714C21.1613 20.3084 20.7259 20.7438 20.1889 20.7438H1.38985C0.852823 20.7438 0.41748 20.3084 0.41748 19.7714V0.972365C0.41748 0.435343 0.852823 0 1.38985 0ZM12.4524 18.3929V16.1199C12.8632 16.4655 13.3093 16.7248 13.7909 16.8976C14.2725 17.0705 14.7587 17.1569 15.2498 17.1569C15.5378 17.1569 15.7892 17.1308 16.004 17.0788C16.2188 17.0268 16.3982 16.9545 16.5422 16.8621C16.6862 16.7697 16.7937 16.6608 16.8645 16.5354C16.9353 16.41 16.9706 16.2738 16.9706 16.127C16.9706 15.9281 16.9141 15.7505 16.8006 15.5942C16.6873 15.438 16.5328 15.2935 16.3368 15.1609C16.1409 15.0283 15.9084 14.9005 15.6393 14.7774C15.3702 14.6543 15.0798 14.5288 14.7682 14.4009C13.975 14.0694 13.3837 13.6645 12.9942 13.1863C12.6047 12.708 12.4099 12.1303 12.4099 11.4531C12.4099 10.9227 12.5161 10.4669 12.7286 10.0857C12.941 9.70454 13.2302 9.39083 13.5961 9.14457C13.962 8.89834 14.3858 8.7172 14.8673 8.60118C15.3489 8.48516 15.8588 8.42716 16.397 8.42716C16.9259 8.42716 17.3944 8.45912 17.8028 8.52306C18.2112 8.58699 18.5877 8.68525 18.9324 8.81784V10.9417C18.7624 10.8233 18.5771 10.7191 18.3765 10.6291C18.1757 10.5392 17.9692 10.4646 17.7568 10.4054C17.5443 10.3462 17.333 10.3024 17.123 10.274C16.9128 10.2456 16.7134 10.2314 16.5245 10.2314C16.2648 10.2314 16.0288 10.2562 15.8163 10.306C15.6038 10.3557 15.4244 10.4255 15.2781 10.5155C15.1317 10.6055 15.0184 10.7132 14.9382 10.8387C14.8579 10.9642 14.8178 11.105 14.8178 11.2613C14.8178 11.4318 14.8626 11.5845 14.9523 11.7195C15.042 11.8544 15.1695 11.9823 15.3347 12.103C15.5 12.2238 15.7006 12.3422 15.9367 12.4582C16.1728 12.5742 16.4395 12.6938 16.7369 12.8169C17.1431 12.9874 17.5077 13.1685 17.8312 13.3603C18.1545 13.5521 18.4319 13.7687 18.6632 14.0102C18.8946 14.2517 19.0716 14.5276 19.1944 14.8377C19.3171 15.1479 19.3785 15.509 19.3785 15.921C19.3785 16.4892 19.2711 16.9663 19.0563 17.3522C18.8415 17.7382 18.5499 18.0507 18.1817 18.2899C17.8133 18.5291 17.385 18.7007 16.8962 18.8049C16.4077 18.9091 15.8919 18.9611 15.3489 18.9611C14.7918 18.9611 14.2618 18.9138 13.759 18.819C13.2562 18.7243 12.8207 18.5822 12.4524 18.3929ZM11.5996 10.4617H8.63431V18.7991H6.28529V10.4617H3.3345V8.58922H11.5996V10.4617Z" fill="white"/>
</svg>
