<svg width="18" height="14" viewBox="0 0 18 14" fill="none" xmlns="http://www.w3.org/2000/svg">
<path d="M7.14253 9.50773C7.14253 10.2287 6.76692 11.4086 5.87789 11.4086C4.98885 11.4086 4.61325 10.2287 4.61325 9.50773C4.61325 8.7867 4.98885 7.60685 5.87789 7.60685C6.76692 7.60685 7.14253 8.7867 7.14253 9.50773V9.50773ZM17.27 7.76554C17.27 8.86605 17.1597 10.0321 16.6669 11.0429C15.361 13.6855 11.7703 13.6234 9.19972 13.6234C6.58774 13.6234 2.78348 13.7166 1.4258 11.0429C0.922706 10.0425 0.729736 8.86605 0.729736 7.76554C0.729736 6.32004 1.20871 4.9539 2.15978 3.84649C1.98059 3.30141 1.89445 2.72873 1.89445 2.16295C1.89445 1.42123 2.06329 1.04864 2.39754 0.375916C3.95853 0.375916 4.95784 0.686404 6.14667 1.61787C7.14597 1.37983 8.17285 1.27288 9.20316 1.27288C10.1336 1.27288 11.0708 1.37293 11.9737 1.59027C13.1453 0.669154 14.1446 0.375916 15.6883 0.375916C16.026 1.04864 16.1914 1.42123 16.1914 2.16295C16.1914 2.72873 16.1018 3.29106 15.9261 3.82579C16.8737 4.94355 17.27 6.32004 17.27 7.76554V7.76554ZM15.0543 9.50773C15.0543 7.99323 14.1342 6.65813 12.5216 6.65813C11.8703 6.65813 11.2466 6.77543 10.5919 6.86512C10.0784 6.94447 9.56498 6.97552 9.03776 6.97552C8.51399 6.97552 8.00055 6.94447 7.48367 6.86512C6.83929 6.77543 6.20869 6.65813 5.55397 6.65813C3.9413 6.65813 3.02125 7.99323 3.02125 9.50773C3.02125 12.5367 5.79174 13.0024 8.20386 13.0024H9.86477C12.2872 13.0024 15.0543 12.5402 15.0543 9.50773V9.50773ZM12.208 7.60685C11.3189 7.60685 10.9433 8.7867 10.9433 9.50773C10.9433 10.2287 11.3189 11.4086 12.208 11.4086C13.097 11.4086 13.4726 10.2287 13.4726 9.50773C13.4726 8.7867 13.097 7.60685 12.208 7.60685Z" fill="white"/>
</svg>
